<svg width="201" height="201" viewBox="0 0 201 201" fill="none" xmlns="http://www.w3.org/2000/svg">
<path fill-rule="evenodd" clip-rule="evenodd" d="M105.359 16.6683C115.899 6.46143 130.029 0.806912 144.7 0.924654C159.372 1.0424 173.409 6.92296 183.784 17.2977C194.159 27.6725 200.04 41.7098 200.157 56.3815C200.275 71.0532 194.621 85.1831 184.414 95.723L184.261 95.8752L157.754 122.395C152.085 128.063 145.263 132.446 137.752 135.247C130.24 138.048 122.214 139.201 114.218 138.628C106.222 138.055 98.4425 135.769 91.4071 131.926C84.3717 128.083 78.2449 122.772 73.442 116.353C71.6553 113.863 70.916 110.772 71.383 107.743C71.8501 104.714 73.4861 101.989 75.9399 100.153C78.3938 98.3165 81.4697 97.5156 84.5074 97.9221C87.5451 98.3285 90.3023 99.9098 92.1871 102.327C94.9762 106.06 98.5361 109.149 102.625 111.385C106.714 113.62 111.236 114.95 115.884 115.283C120.532 115.616 125.197 114.945 129.563 113.316C133.929 111.686 137.893 109.136 141.186 105.839L167.636 79.3899C173.421 73.2346 176.582 65.0689 176.45 56.6228C176.318 48.1768 172.903 40.1139 166.928 34.1425C160.954 28.171 152.889 24.7601 144.443 24.6323C135.997 24.5046 127.833 27.67 121.68 33.4581L106.541 48.515C104.327 50.6424 101.366 51.8148 98.296 51.7798C95.2257 51.7448 92.2921 50.5051 90.1271 48.3278C87.9621 46.1506 86.739 43.2099 86.7214 40.1395C86.7037 37.0691 87.8929 34.1146 90.0328 31.9126L105.23 16.7971L105.359 16.6683ZM63.2441 65.7497C74.5649 61.5283 86.9487 61.088 98.5408 64.4947C110.133 67.9014 120.309 74.9718 127.546 84.6469C129.333 87.1369 130.072 90.2283 129.605 93.2572C129.138 96.2862 127.502 99.0113 125.048 100.847C122.595 102.684 119.519 103.484 116.481 103.078C113.443 102.671 110.686 101.09 108.801 98.6735C106.011 94.9419 102.451 91.8542 98.3618 89.6197C94.273 87.3853 89.7515 86.0564 85.104 85.7232C80.4564 85.3901 75.7916 86.0604 71.4259 87.6888C67.0603 89.3172 63.0959 91.8656 59.8018 95.161L33.3644 121.61C27.4907 127.746 24.2532 135.937 24.3452 144.43C24.4372 152.924 27.8514 161.043 33.8566 167.05C39.8618 173.057 47.9805 176.473 56.4737 176.567C64.9669 176.661 73.1593 173.426 79.2962 167.554L94.3414 152.508C95.4215 151.39 96.7134 150.498 98.1419 149.885C99.5704 149.271 101.107 148.948 102.661 148.934C104.216 148.921 105.758 149.217 107.197 149.806C108.636 150.395 109.943 151.264 111.042 152.363C112.141 153.463 113.011 154.77 113.6 156.209C114.188 157.648 114.484 159.189 114.471 160.744C114.457 162.299 114.134 163.835 113.521 165.264C112.907 166.692 112.015 167.984 110.897 169.064L95.7815 184.179L95.641 184.332C85.1011 194.539 70.9712 200.193 56.2995 200.075C41.6279 199.958 27.5905 194.077 17.2157 183.702C6.84099 173.328 0.960427 159.29 0.842684 144.619C0.724941 129.947 6.37946 115.817 16.5864 105.277L16.7269 105.125L43.2463 78.6054C48.9192 72.9432 55.7377 68.5599 63.2441 65.7497Z" fill="#FED50D"/>
</svg>
